<svg width="16" height="14" viewBox="0 0 16 14" fill="none" xmlns="http://www.w3.org/2000/svg">
<path d="M10.5804 7.59352C10.5804 9.01642 9.4229 10.1739 8 10.1739C6.5771 10.1739 5.42003 9.01642 5.42003 7.59352C5.42003 6.17062 6.5771 5.0131 8 5.0131C9.4229 5.0131 10.5804 6.17106 10.5804 7.59352ZM16 3.92945V11.2585C16 12.2355 15.2078 13.0277 14.2308 13.0277H1.76923C0.792171 13.0277 0 12.2355 0 11.2585V3.92945C0 2.9524 0.792171 2.16023 1.76923 2.16023H3.94538V1.54807C3.94538 0.693094 4.63803 0 5.49345 0H10.5066C11.362 0 12.0546 0.693094 12.0546 1.54807V2.15978H14.2308C15.2078 2.16023 16 2.9524 16 3.92945ZM11.9073 7.59352C11.9073 5.43904 10.1545 3.68618 8 3.68618C5.84597 3.68618 4.09311 5.43904 4.09311 7.59352C4.09311 9.74799 5.84597 11.5009 8 11.5009C10.1545 11.5009 11.9073 9.74799 11.9073 7.59352Z" fill="#BEA69E"/>
</svg>
